<?xml version="1.0" encoding="utf-8"?>
<!-- Generator: Adobe Illustrator 23.0.3, SVG Export Plug-In . SVG Version: 6.00 Build 0)  -->
<svg version="1.1" id="Layer_1" xmlns="http://www.w3.org/2000/svg" xmlns:xlink="http://www.w3.org/1999/xlink" x="0px" y="0px"
	 viewBox="0 0 144 144" style="enable-background:new 0 0 144 144;" xml:space="preserve">
<style type="text/css">
	.st0{enable-background:new    ;}
	.st1{fill:#72AEF2;}
	.st2{fill:#A6CCFF;}
</style>
<g>
	<g class="st0">
		<path class="st1" d="M23.9,53.4c0.3,22.8,24.6,65.3,51.4,64.2c19.8-0.8,46.5-41.3,46-62.5C120.6,34,23.5,30.7,23.9,53.4z"/>
	</g>
	<g class="st0">
		<path class="st2" d="M73.1,25.3c-28.9,0.4-50.8,11.4-49.3,26.8c1.1,11.7,16,5.5,25,7.8c9,2.3,12.9,12.5,23.8,12.9
			c8.1,0.3,15.4-4.8,24.2-9.6c8.9-4.8,23.1,0.8,23.6-12.8C120.8,40.7,102,24.9,73.1,25.3z"/>
	</g>
</g>
</svg>
