<?xml version="1.0" encoding="utf-8"?>
<!-- Generator: Adobe Illustrator 23.0.3, SVG Export Plug-In . SVG Version: 6.00 Build 0)  -->
<svg version="1.1" id="Layer_1" xmlns="http://www.w3.org/2000/svg" xmlns:xlink="http://www.w3.org/1999/xlink" x="0px" y="0px"
	 viewBox="0 0 144 144" style="enable-background:new 0 0 144 144;" xml:space="preserve">
<style type="text/css">
	.st0{enable-background:new    ;}
	.st1{fill:#CE97F0;}
	.st2{fill:#3A5A85;}
</style>
<g>
	<g class="st0">
		<path class="st1" d="M113,21.8C99.6,11,85.7,20.4,71.1,20.8c-14.6,0.4-37.3-6.8-47.1,9.8C12.2,50.4,25,65.1,25.3,77.2
			c0.2,12.2-9.5,33,4.3,44.6c13.8,11.6,32,4,44.6,3c12.6-1,35.6,3.5,46.7-12.3c11.1-15.8,2.1-30.4-0.4-43.8
			C118,55.4,126.4,32.5,113,21.8z"/>
	</g>
	<g>
		<path class="st2" d="M76.4,98.2c-0.5-3.5-1-7.6-1.4-12c-0.4-4.4-0.8-9.1-1-13.8c-0.6-9.4-0.9-19-1.1-26.1
			c-0.3-7.3-0.4-12.1-0.4-12.1s-1.9,4.6-3.2,11.8c-1.4,7.2-2.1,17-1.6,26.8c0.3,4.9,0.9,9.8,1.8,14.3c0.9,4.5,2.1,8.7,3.4,12.1
			c1.3,3.5,2.7,6.2,3.9,8.1c1.2,1.8,1.9,2.8,1.9,2.8s-0.2-1.2-0.7-3.3C77.5,104.7,76.9,101.7,76.4,98.2z"/>
	</g>
	<g>
		<path class="st2" d="M97.4,69.7c-1.2,0.3-2.5,0.7-3.9,0.9c-5.8,1.2-13.5,2.3-21.3,3c-7.9,0.7-15.8,1.5-21.7,2
			c-6,0.6-10.1,1.2-10.1,1.2s3.9,1.5,10,2.4c3,0.5,6.6,0.9,10.4,1c3.8,0.2,7.9,0,12-0.3c4.1-0.5,8.2-1.1,11.9-2.2
			c3.8-1,7.2-2.3,10-3.7c1.4-0.6,2.6-1.5,3.7-2.1c1.1-0.6,2-1.3,2.6-2c1.4-1.2,2.1-1.9,2.1-1.9s-1,0.3-2.7,0.8
			C99.6,69.2,98.6,69.4,97.4,69.7z"/>
	</g>
</g>
</svg>
