<?xml version="1.0" encoding="utf-8"?>
<!-- Generator: Adobe Illustrator 23.0.3, SVG Export Plug-In . SVG Version: 6.00 Build 0)  -->
<svg version="1.1" id="Layer_1" xmlns="http://www.w3.org/2000/svg" xmlns:xlink="http://www.w3.org/1999/xlink" x="0px" y="0px"
	 viewBox="0 0 144 144" style="enable-background:new 0 0 144 144;" xml:space="preserve">
<style type="text/css">
	.st0{enable-background:new    ;}
	.st1{fill:#A195F0;}
	.st2{fill:#3A5A85;}
</style>
<g>
	<g class="st0">
		<path class="st1" d="M73.8,25.7c-17-0.1-27.6-5.3-38.3,5.7C20.5,46.8,19.3,95,35,111.2c11.4,11.8,26.5,5.8,43.7,5.2
			c16.5-0.6,24.2-1.1,33.9-11.4c12.2-13,11.9-59.7-1.4-72.4C99.9,22,91.9,25.8,73.8,25.7z"/>
	</g>
	<g>
		<path class="st2" d="M79.4,62.6c-0.2-2.4-0.1-3.8-0.4-7c-0.9-5.5-3.8-9.2-6.4-11.9c-2.6-2.7-5.4-4.4-7.3-5.3
			c-2-0.9-3.2-1.1-3.2-1.1s3.7,3.3,6.8,9.1c1.5,2.9,3,6.5,3.1,9.8c0,1.3-0.4,4.4-0.2,6.6c0.1,2.3,0.2,4.7,0.2,7.1
			c0.4,4.7,0.7,9.2,0.9,13.4c0,2.3,0.2,3.5-0.3,5.1c-0.5,1.6-1.2,3.2-2,4.7c-3.1,6-6.1,9.8-6.1,9.8s4.7-1.7,9.8-7.2
			c1.3-1.4,2.6-3,3.7-5c1.3-2,1.8-5.2,1.9-7.3c0.5-4.6,0.2-9.4,0-14.1C79.8,67.2,79.6,64.9,79.4,62.6z"/>
	</g>
	<g>
		<path class="st2" d="M82.5,93.2c-0.9-1.3-1.7-2.9-2.4-4.4c-0.3-0.7-0.5-1.6-0.5-2l0-0.7c0,0,0-0.5,0-0.2l0-0.4l0-1.6
			c0.1-4.3,0.1-8.9,0-13.5c-0.2-4.6-0.3-9.1-0.5-13.4c-0.1-1.8,0.1-3.1,0.8-4.8c0.6-1.6,1.4-3.1,2.3-4.5c1.7-2.8,3.4-5.2,4.6-7
			c1.1-1.8,1.8-2.8,1.8-2.8s-1.1,0.5-2.9,1.6c-1.8,1.1-4.3,2.7-7.1,5.2c-1.4,1.3-2.8,2.8-4,4.7c-1.3,1.8-2.3,4.7-2.5,7.2
			c-0.5,4.6-0.5,9.2-0.4,13.9c0.2,4.7,0.5,9.3,1,13.7l0.2,1.6l0.1,0.4c0.1,0.6,0.1,0.4,0.1,0.6l0.2,0.8c0.5,1.7,1.1,2.7,1.7,3.7
			c1.3,2,2.8,3.4,4.2,4.7c2.9,2.5,5.7,3.8,7.7,4.5c2.1,0.7,3.3,0.6,3.3,0.6s-1.1-0.6-2.5-1.9C86.2,98,84.3,95.9,82.5,93.2z"/>
	</g>
</g>
</svg>
