<?xml version="1.0" encoding="utf-8"?>
<!-- Generator: Adobe Illustrator 23.0.3, SVG Export Plug-In . SVG Version: 6.00 Build 0)  -->
<svg version="1.1" id="Layer_1" xmlns="http://www.w3.org/2000/svg" xmlns:xlink="http://www.w3.org/1999/xlink" x="0px" y="0px"
	 viewBox="0 0 144 144" style="enable-background:new 0 0 144 144;" xml:space="preserve">
<style type="text/css">
	.st0{enable-background:new    ;}
	.st1{fill:#CE97F0;}
	.st2{fill:#3A5A85;}
</style>
<g class="st0">
	<path class="st1" d="M30.5,23c-12.3,12.3-7.2,37-8.1,46.5c-1.4,15.2-12.3,30,0.7,45.5c13,15.5,64.4,19.3,83.9,2.1
		c23.6-20.8,26.8-63.4,6.3-86C101,17.4,42.8,10.6,30.5,23z"/>
</g>
<g>
	<path class="st2" d="M73.7,43.6c-1.3,3.6-2.5,7.9-3.4,12.6c-1,4.7-1.6,9.8-1.9,14.9c-0.1,2.6-0.1,5.1,0,7.6c0,2.5,0.4,5,0.6,7.4
		c0.4,2.4,0.7,4.7,1.3,6.9c0.5,2.2,1.1,4.2,1.8,6c0.6,1.8,1.4,3.5,2.2,4.8c0.7,1.4,1.4,2.6,2.1,3.5c1.3,1.8,2.1,2.8,2.1,2.8
		s-0.4-1.2-1.1-3.3c-0.4-1-0.6-2.3-1-3.8c-0.4-1.4-0.7-3.1-1-4.9c-0.4-1.8-0.5-3.8-0.7-5.8c-0.3-2.1-0.2-4.3-0.4-6.5
		c0-4.6-0.2-9.4,0.2-14.3c0.1-4.9,0.7-9.8,1.1-14.3c0.5-4.6,1-8.9,1.5-12.5c0.5-3.7,1-6.7,1.4-8.9c0.4-2.2,0.7-3.4,0.7-3.4
		s-0.7,1.1-1.8,3C76.3,37.1,74.9,40,73.7,43.6z"/>
</g>
<g>
	<g>
		<path class="st2" d="M40.5,69.8c-3.4-0.1-5.7-0.3-5.7-0.3s2.2,0.6,5.6,1.3c3.4,0.7,8,1.4,12.5,2.1c9.1,1.3,18.3,2.4,18.3,2.4
			l0.2-6.1c0,0-9.2,0.4-18.4,0.6C48.5,69.8,43.9,69.9,40.5,69.8z"/>
	</g>
</g>
</svg>
