<?xml version="1.0" encoding="utf-8"?>
<!-- Generator: Adobe Illustrator 23.0.3, SVG Export Plug-In . SVG Version: 6.00 Build 0)  -->
<svg version="1.1" id="Layer_1" xmlns="http://www.w3.org/2000/svg" xmlns:xlink="http://www.w3.org/1999/xlink" x="0px" y="0px"
	 viewBox="0 0 144 144" style="enable-background:new 0 0 144 144;" xml:space="preserve">
<style type="text/css">
	.st0{enable-background:new    ;}
	.st1{fill:#72AEF2;}
	.st2{fill:#A6CCFF;}
</style>
<g class="st0">
	<path class="st1" d="M49.2,37.8c-6,10.7-22.8,45.8-5.4,62.6c17.9,17.4,53.6-4.5,63.6-15.9C117.3,73.1,55.2,27.1,49.2,37.8z"/>
</g>
<g class="st0">
	<path class="st2" d="M91.8,46c-20.6-16.1-37.5-15.6-42-7.8c-4.3,7.6,4.2,14.5,6.3,21c2.2,6.5,1.1,12.3,5.8,16.8
		c4.7,4.5,13,2.9,23,5.4c7.2,1.8,14.5,8.9,21.7,4C113.5,80.7,112.3,62,91.8,46z"/>
</g>
</svg>
