<?xml version="1.0" encoding="utf-8"?>
<!-- Generator: Adobe Illustrator 23.0.3, SVG Export Plug-In . SVG Version: 6.00 Build 0)  -->
<svg version="1.1" id="Layer_1" xmlns="http://www.w3.org/2000/svg" xmlns:xlink="http://www.w3.org/1999/xlink" x="0px" y="0px"
	 viewBox="0 0 144 144" style="enable-background:new 0 0 144 144;" xml:space="preserve">
<style type="text/css">
	.st0{enable-background:new    ;}
	.st1{fill:#A195F0;}
	.st2{fill:#3A5A85;}
</style>
<g class="st0">
	<path class="st1" d="M89.8,27.9c-17.9-0.5-24,10.2-30.3,14.5c-4.2,2.9-20.2,1.8-27.6,10.9c-14.7,18.1,12,63.9,31.3,60.2
		c18.5-3.5,18.8-11.8,24.7-14c5.9-2.3,17.4,1.8,28.8-9.7C127.8,78.2,107.7,28.3,89.8,27.9z"/>
</g>
<g>
	<path class="st2" d="M85.3,86.2c-3.2-3.2-6.2-8.9-9.6-14.6c-1.8-2.8-3.3-5.4-4.5-8c-1.1-2.6-1.8-5.2-2.1-7.5
		c-0.3-2.3-0.3-4.4-0.3-5.9c0-1.5-0.1-2.4-0.1-2.4s-0.4,0.8-1.1,2.1c-0.6,1.3-1.6,3.4-2,6.1c-0.5,2.7-0.3,6,0.6,9.3
		c0.8,3.3,2.6,6.6,4.3,9.5C74,80.5,78.2,86.3,83.3,89c2.4,1.4,4.8,1.7,6.3,1.8c1.5,0,2.4-0.1,2.4-0.1s-0.8-0.3-2.1-1
		C88.6,88.9,86.9,87.8,85.3,86.2z"/>
</g>
<g>
	<path class="st2" d="M70,63.6c-2.1-2.4-4.6-4.5-7.1-5.7c-2.6-1.2-5-1.2-6.4-1c-1.5,0.2-2.3,0.4-2.3,0.4s0.8,0.3,2.2,0.8
		c1.4,0.5,3.1,1.3,4.7,2.8c3.2,2.9,6.3,8.4,9.5,13.9c1.7,2.9,3.1,5.5,4.5,8.1c1.3,2.6,2.2,5,2.7,7.1c0.4,2.1,0.3,4.1,0.2,5.6
		c-0.1,1.5-0.1,2.3-0.1,2.3s0.5-0.7,1.3-2c0.7-1.3,1.8-3.2,2.2-6c0.7-5.7-2.1-12.5-5.3-18.2C74,68.8,72.2,66,70,63.6z"/>
</g>
</svg>
