<?xml version="1.0" encoding="utf-8"?>
<!-- Generator: Adobe Illustrator 23.0.3, SVG Export Plug-In . SVG Version: 6.00 Build 0)  -->
<svg version="1.1" id="Layer_1" xmlns="http://www.w3.org/2000/svg" xmlns:xlink="http://www.w3.org/1999/xlink" x="0px" y="0px"
	 viewBox="0 0 144 144" style="enable-background:new 0 0 144 144;" xml:space="preserve">
<style type="text/css">
	.st0{enable-background:new    ;}
	.st1{fill:#A195F0;}
	.st2{fill:#3A5A85;}
</style>
<g class="st0">
	<path class="st1" d="M85.9,28.9C69.3,27.7,68,38.3,59.3,41.2c-6,2-17.5-0.8-28,10.1c-10.8,11.3,5.3,64,25.3,64.6
		c16.9,0.5,22.2-10.4,27.7-12.8c5.5-2.4,23.9,3.4,33-10.8C123.8,82.4,108.3,30.6,85.9,28.9z"/>
</g>
<g>
	<path class="st2" d="M81.5,89.6c-1.5-2-2.7-5.1-4-8.5c-1.2-3.4-2.5-7.1-3.8-10.7c-1.4-3.7-2.9-7.4-4.4-10.7c-0.8-1.8-1.4-3-1.7-4.4
		c-0.2-1.3-0.2-2.6,0.1-3.9c0.6-2.5,2-4.5,3-5.9c1.1-1.4,1.7-2.2,1.7-2.2s-0.9,0.4-2.5,1.3c-1.5,1-3.8,2.5-5.4,5.5
		c-0.8,1.5-1.4,3.4-1.3,5.5c0,2.1,0.6,4.2,1.1,5.9c1,3.6,2.4,7.3,3.7,11c1.4,3.7,2.8,7.4,4.6,10.9c1.8,3.4,3.7,6.6,6.4,8.8
		c1.3,1.1,2.8,1.8,4.2,2.1c1.3,0.3,2.5,0.2,3.3,0.1c1.8-0.1,2.8-0.3,2.8-0.3s-1-0.3-2.6-0.9C85,92.6,82.9,91.7,81.5,89.6z"/>
</g>
<g>
	<path class="st2" d="M73.2,69.4c-1.4-3.6-2.8-7.3-4.4-10.6c-0.5-1.4-1.9-4.1-3.7-5.2c-1.7-1.3-3.5-1.8-5.1-2.2
		c-3.2-0.7-5.8-0.3-7.6,0c-1.8,0.4-2.7,0.8-2.7,0.8s1,0.1,2.7,0.4c1.7,0.3,4,0.9,6.4,2.1c1.2,0.6,2.4,1.4,3.2,2.3c1,1,1,1.7,1.7,3.7
		c1,3.5,2.4,7.2,3.7,10.9c2.9,7.3,6,14.2,7.3,19.6c0.6,2.7,0.4,4.8-0.2,6.3c-0.7,1.6-1,2.5-1,2.5s0.8-0.6,2.1-1.9
		c1.3-1.2,2.7-4,2.7-7.3c0.1-3.2-0.5-6.8-1.4-10.5C76,76.8,74.6,73.1,73.2,69.4z"/>
</g>
</svg>
