<?xml version="1.0" encoding="utf-8"?>
<!-- Generator: Adobe Illustrator 23.0.3, SVG Export Plug-In . SVG Version: 6.00 Build 0)  -->
<svg version="1.1" id="Layer_1" xmlns="http://www.w3.org/2000/svg" xmlns:xlink="http://www.w3.org/1999/xlink" x="0px" y="0px"
	 viewBox="0 0 144 144" style="enable-background:new 0 0 144 144;" xml:space="preserve">
<style type="text/css">
	.st0{enable-background:new    ;}
	.st1{fill:#CE97F0;}
	.st2{fill:#3A5A85;}
</style>
<g class="st0">
	<path class="st1" d="M108.1,11c-11.3-7.3-36.3,0-51.5,5.2C41.3,21.4,13.3,31.1,8.1,45.6C2.9,60.2,20.9,75.4,23.4,85.8
		s0.3,36.1,15.6,44.3c18.7,10,85.1-3.1,96.2-30.4c6.9-17.1-10-35.6-14.5-45C116.1,45.3,118.8,18,108.1,11z"/>
</g>
<g>
	<path class="st2" d="M79.4,73.6c-2.8-9.5-6.8-18.6-10.5-25c-3.6-6.5-7.1-10.2-7.1-10.2s1.7,4.7,3.9,11.6c1.1,3.5,2.4,7.5,3.8,11.8
		c1.3,4.3,2.8,8.9,4.1,13.5c1.4,4.6,2.6,9.2,3.7,13.6c1,4.4,2,8.4,2.7,12c0.7,3.5,1.1,6.5,1.3,8.7c0.2,2.1,0.4,3.4,0.4,3.4
		s0.3-1.2,0.8-3.3c0.5-2.1,0.9-5.3,0.9-9c0.2-3.8-0.2-8.1-0.9-12.7C81.9,83.2,80.7,78.4,79.4,73.6z"/>
</g>
<g>
	<path class="st2" d="M87.8,71.1c-3.8,1.7-7.9,3.6-12,5.3c-8.2,3.6-16.5,6.6-23,8.4c-1.6,0.5-3.1,0.8-4.4,1.1
		c-1.3,0.3-2.5,0.6-3.5,0.8c-2,0.4-3.1,0.6-3.1,0.6s1.1,0.2,3.1,0.6c1,0.2,2.3,0.4,3.7,0.4c1.4,0,3.1,0.2,4.8,0
		c3.5-0.2,7.6-0.7,11.9-1.8c4.3-1,8.7-2.6,13-4.4c8.5-3.7,16.5-8.6,21.9-12.8c5.5-4.2,8.6-7.7,8.6-7.7s-4.3,1.8-10.5,4.7
		C95.2,67.6,91.6,69.3,87.8,71.1z"/>
</g>
</svg>
