<?xml version="1.0" encoding="utf-8"?>
<!-- Generator: Adobe Illustrator 23.0.3, SVG Export Plug-In . SVG Version: 6.00 Build 0)  -->
<svg version="1.1" id="Layer_1" xmlns="http://www.w3.org/2000/svg" xmlns:xlink="http://www.w3.org/1999/xlink" x="0px" y="0px"
	 viewBox="0 0 144 144" style="enable-background:new 0 0 144 144;" xml:space="preserve">
<style type="text/css">
	.st0{enable-background:new    ;}
	.st1{fill:#CE97F0;}
	.st2{fill:#3A5A85;}
</style>
<g class="st0">
	<path class="st1" d="M106.8,18.3c-15.6-8.6-34.9,3.5-47.4,5.2C47,25.2,24.2,27.9,16.8,37.9C6.1,52.4,12,113.1,31.1,127.6
		c8.9,6.8,28.4,7.2,48.8,2.4c23.2-5.4,41.7,0.4,51.7-19c6.3-12.1-6.1-34.6-8.9-47.4C120,50.8,122.4,26.9,106.8,18.3z"/>
</g>
<g>
	<path class="st2" d="M78.3,75.5c-1.9-9.7-5.1-19.2-8.2-25.9c-3-6.8-6.1-10.8-6.1-10.8s1.2,4.8,2.8,11.9c0.8,3.5,1.7,7.7,2.7,12.1
		c0.9,4.4,2,9.1,2.8,13.8c1,4.7,1.7,9.4,2.5,13.9c0.6,4.4,1.3,8.6,1.5,12.2c0.4,3.6,0.5,6.6,0.5,8.7c0,2.2,0.1,3.4,0.1,3.4
		s0.4-1.1,1.1-3.2c0.6-2.1,1.4-5.2,1.8-8.9c0.5-3.7,0.5-8.1,0.3-12.8C79.9,85.3,79.2,80.4,78.3,75.5z"/>
</g>
<g>
	<path class="st2" d="M89.1,74.8c-4.1,0.9-8.5,2-12.9,2.8c-8.7,1.8-17.5,3.1-24.2,3.6c-1.7,0.2-3.2,0.2-4.6,0.2
		c-1.4,0.1-2.6,0.1-3.6,0c-2,0-3.2,0-3.2,0s1,0.5,3,1.2c1,0.4,2.1,0.8,3.5,1.1c1.4,0.3,3,0.8,4.7,1c3.5,0.5,7.6,0.8,12,0.6
		c4.4-0.1,9-0.8,13.6-1.7c9.1-1.9,17.8-5.1,24.1-8.1c6.3-3,10-5.8,10-5.8s-4.6,0.9-11.2,2.5C97,72.9,93.2,73.8,89.1,74.8z"/>
</g>
</svg>
