<?xml version="1.0" encoding="utf-8"?>
<!-- Generator: Adobe Illustrator 23.0.3, SVG Export Plug-In . SVG Version: 6.00 Build 0)  -->
<svg version="1.1" id="Layer_1" xmlns="http://www.w3.org/2000/svg" xmlns:xlink="http://www.w3.org/1999/xlink" x="0px" y="0px"
	 viewBox="0 0 144 144" style="enable-background:new 0 0 144 144;" xml:space="preserve">
<style type="text/css">
	.st0{enable-background:new    ;}
	.st1{fill:#CE97F0;}
	.st2{fill:#3A5A85;}
</style>
<g class="st0">
	<path class="st1" d="M113.1,23c-12.3-12.3-70.5-5.5-82.8,8.1C9.8,53.6,13,96.3,36.6,117c19.5,17.2,70.8,13.4,83.9-2.1
		c13-15.5,2.1-30.3,0.7-45.5C120.3,60,125.4,35.3,113.1,23z"/>
</g>
<g>
	<path class="st2" d="M73.4,56.2c-0.9-4.7-2.1-9-3.4-12.6c-1.2-3.6-2.6-6.5-3.7-8.5c-1.1-1.9-1.8-3-1.8-3s0.2,1.2,0.7,3.4
		c0.4,2.2,0.9,5.2,1.4,8.9c0.5,3.7,1,8,1.5,12.5c0.4,4.6,0.9,9.5,1.1,14.3c0.4,4.9,0.2,9.7,0.2,14.3c-0.2,2.2-0.1,4.5-0.4,6.5
		c-0.2,2.1-0.4,4.1-0.7,5.8c-0.3,1.8-0.6,3.5-1,4.9c-0.4,1.4-0.6,2.8-1,3.8c-0.7,2.1-1.1,3.3-1.1,3.3s0.8-1,2.1-2.8
		c0.7-0.9,1.4-2.1,2.1-3.5c0.8-1.4,1.5-3,2.2-4.8c0.8-1.8,1.3-3.8,1.8-6c0.6-2.2,0.9-4.5,1.3-6.9c0.2-2.4,0.6-4.9,0.6-7.4
		c0-2.5,0.1-5.1,0-7.6C74.9,65.9,74.3,60.9,73.4,56.2z"/>
</g>
<g>
	<g>
		<path class="st2" d="M90.3,68.8c-4.6,0-9.3,0.1-12.8,0.3c-1.7,0.1-3.3,0.2-4.3,0.3c-1,0.1-1.6,0.2-1.6,0.2l1.2,6
			c0,0,0.6-0.2,1.5-0.4c1-0.3,2.2-0.6,3.9-0.9c3.3-0.7,7.8-1.6,12.4-2.3c9.1-1.6,18.2-2.8,18.2-2.8S99.6,68.8,90.3,68.8z"/>
	</g>
</g>
</svg>
