<?xml version="1.0" encoding="utf-8"?>
<!-- Generator: Adobe Illustrator 23.0.3, SVG Export Plug-In . SVG Version: 6.00 Build 0)  -->
<svg version="1.1" id="Layer_1" xmlns="http://www.w3.org/2000/svg" xmlns:xlink="http://www.w3.org/1999/xlink" x="0px" y="0px"
	 viewBox="0 0 144 144" style="enable-background:new 0 0 144 144;" xml:space="preserve">
<style type="text/css">
	.st0{enable-background:new    ;}
	.st1{fill:#CE97F0;}
	.st2{fill:#3A5A85;}
</style>
<g class="st0">
	<path class="st1" d="M85.1,23.5c-12.5-1.7-31.8-13.8-47.4-5.2c-15.6,8.7-13.1,32.5-15.9,45.3C19.1,76.4,6.7,98.9,13,111
		c10,19.4,28.5,13.6,51.7,19c20.4,4.8,39.9,4.4,48.8-2.4c19-14.5,24.9-75.2,14.2-89.7C120.4,27.9,97.6,25.2,85.1,23.5z"/>
</g>
<g>
	<path class="st2" d="M66.3,75.5c-0.9,4.9-1.6,9.8-1.8,14.5c-0.2,4.7-0.2,9,0.3,12.8c0.4,3.7,1.1,6.8,1.8,8.9
		c0.7,2.1,1.1,3.2,1.1,3.2s0-1.2,0.1-3.4c0-2.1,0.2-5.2,0.5-8.7c0.3-3.6,0.9-7.7,1.5-12.2c0.7-4.4,1.5-9.2,2.5-13.9
		c0.8-4.7,1.9-9.4,2.8-13.8c1-4.4,1.9-8.6,2.7-12.1c1.6-7.1,2.8-11.9,2.8-11.9s-3.1,4-6.1,10.8C71.3,56.3,68.2,65.8,66.3,75.5z"/>
</g>
<g>
	<path class="st2" d="M97.1,81.4c-1.4-0.1-2.9-0.1-4.6-0.2c-6.7-0.5-15.5-1.7-24.2-3.6c-4.4-0.8-8.7-1.9-12.9-2.8
		c-4.1-1-8-1.9-11.3-2.6C37.6,70.6,33,69.7,33,69.7s3.7,2.8,10,5.8c6.2,3.1,15,6.3,24.1,8.1c4.6,0.8,9.2,1.6,13.6,1.7
		c4.4,0.2,8.5,0,12-0.6c1.7-0.2,3.3-0.6,4.7-1c1.4-0.3,2.6-0.7,3.5-1.1c1.9-0.7,3-1.2,3-1.2s-1.2,0-3.2,0
		C99.7,81.5,98.5,81.5,97.1,81.4z"/>
</g>
</svg>
