<?xml version="1.0" encoding="utf-8"?>
<!-- Generator: Adobe Illustrator 23.0.3, SVG Export Plug-In . SVG Version: 6.00 Build 0)  -->
<svg version="1.1" id="Layer_1" xmlns="http://www.w3.org/2000/svg" xmlns:xlink="http://www.w3.org/1999/xlink" x="0px" y="0px"
	 viewBox="0 0 144 144" style="enable-background:new 0 0 144 144;" xml:space="preserve">
<style type="text/css">
	.st0{enable-background:new    ;}
	.st1{fill:#CE97F0;}
	.st2{fill:#3A5A85;}
</style>
<g class="st0">
	<path class="st1" d="M88,16.2C72.8,11,47.8,3.7,36.5,11C25.7,18,28.5,45.3,24,54.6C19.5,64,2.6,82.5,9.5,99.6
		c11.1,27.3,77.5,40.5,96.2,30.4c15.2-8.2,13.1-33.9,15.6-44.3c2.4-10.4,20.4-25.6,15.2-40.1C131.2,31.1,103.2,21.4,88,16.2z"/>
</g>
<g>
	<path class="st2" d="M65.2,73.6c-1.3,4.8-2.5,9.6-3.2,14.2c-0.7,4.6-1,9-0.9,12.7c0,3.7,0.5,6.9,0.9,9c0.5,2.1,0.8,3.3,0.8,3.3
		s0.1-1.2,0.4-3.4c0.2-2.1,0.6-5.1,1.3-8.7c0.6-3.5,1.6-7.6,2.7-12c1.1-4.3,2.3-9,3.7-13.6c1.2-4.6,2.8-9.2,4.1-13.5
		c1.4-4.3,2.7-8.3,3.8-11.8c2.2-6.9,3.9-11.6,3.9-11.6s-3.5,3.7-7.1,10.2C72,55,68,64.1,65.2,73.6z"/>
</g>
<g>
	<path class="st2" d="M96.2,85.9c-1.3-0.3-2.8-0.6-4.4-1.1C85.3,83,77,80,68.8,76.4c-4.1-1.7-8.2-3.6-12-5.3
		c-3.8-1.8-7.4-3.4-10.5-4.9c-6.2-2.9-10.5-4.7-10.5-4.7s3.1,3.5,8.6,7.7c5.5,4.3,13.4,9.1,21.9,12.8c4.3,1.7,8.7,3.4,13,4.4
		c4.2,1.1,8.3,1.7,11.9,1.8c1.7,0.2,3.4,0.1,4.8,0c1.4,0,2.7-0.2,3.7-0.4c2-0.3,3.1-0.6,3.1-0.6s-1.1-0.2-3.1-0.6
		C98.7,86.5,97.5,86.3,96.2,85.9z"/>
</g>
</svg>
