<?xml version="1.0" encoding="utf-8"?>
<!-- Generator: Adobe Illustrator 23.0.3, SVG Export Plug-In . SVG Version: 6.00 Build 0)  -->
<svg version="1.1" id="Layer_1" xmlns="http://www.w3.org/2000/svg" xmlns:xlink="http://www.w3.org/1999/xlink" x="0px" y="0px"
	 viewBox="0 0 144 144" style="enable-background:new 0 0 144 144;" xml:space="preserve">
<style type="text/css">
	.st0{enable-background:new    ;}
	.st1{fill:#A195F0;}
	.st2{fill:#3A5A85;}
</style>
<g class="st0">
	<path class="st1" d="M85.2,41.2c-8.7-2.9-9.9-13.5-26.5-12.3c-22.4,1.7-38,53.5-31.6,63.4c9.2,14.2,27.5,8.4,33,10.8
		c5.5,2.4,10.8,13.3,27.7,12.8c20-0.6,36.2-53.3,25.3-64.6C102.7,40.4,91.2,43.2,85.2,41.2z"/>
</g>
<g>
	<path class="st2" d="M74.7,44.7c-1.5-0.9-2.5-1.3-2.5-1.3s0.6,0.8,1.7,2.2c1,1.4,2.4,3.4,3,5.9c0.3,1.2,0.3,2.5,0.1,3.9
		c-0.2,1.3-0.9,2.6-1.7,4.4c-1.5,3.4-2.9,7.1-4.4,10.7c-1.3,3.7-2.6,7.3-3.8,10.7c-1.3,3.3-2.5,6.4-4,8.5c-1.4,2.1-3.5,2.9-5.2,3.5
		c-1.7,0.6-2.6,0.9-2.6,0.9s1,0.1,2.8,0.3c0.9,0,2,0.1,3.3-0.1c1.4-0.3,2.9-1,4.2-2.1c2.7-2.2,4.6-5.4,6.4-8.8
		c1.8-3.4,3.2-7.2,4.6-10.9c1.3-3.7,2.6-7.4,3.7-11c0.5-1.6,1.2-3.8,1.1-5.9c0-2.1-0.5-4-1.3-5.5C78.4,47.1,76.1,45.6,74.7,44.7z"/>
</g>
<g>
	<path class="st2" d="M84.5,51.4c-1.6,0.3-3.4,0.9-5.1,2.2c-1.8,1.1-3.2,3.8-3.7,5.2c-1.5,3.3-2.9,7-4.4,10.6
		c-1.3,3.7-2.8,7.4-3.7,11.1c-0.9,3.7-1.5,7.2-1.4,10.5c0,3.2,1.4,6,2.7,7.3c1.3,1.3,2.1,1.9,2.1,1.9s-0.4-0.9-1.1-2.5
		c-0.7-1.6-0.8-3.7-0.2-6.3C71,85.9,74.1,79,77,71.7c1.3-3.7,2.6-7.4,3.7-10.9c0.6-2.1,0.7-2.7,1.7-3.7c0.9-0.9,2-1.7,3.2-2.3
		c2.4-1.2,4.8-1.7,6.4-2.1c1.7-0.3,2.7-0.4,2.7-0.4s-0.9-0.4-2.7-0.8C90.3,51.1,87.7,50.7,84.5,51.4z"/>
</g>
</svg>
