<?xml version="1.0" encoding="utf-8"?>
<!-- Generator: Adobe Illustrator 23.0.3, SVG Export Plug-In . SVG Version: 6.00 Build 0)  -->
<svg version="1.1" id="Layer_1" xmlns="http://www.w3.org/2000/svg" xmlns:xlink="http://www.w3.org/1999/xlink" x="0px" y="0px"
	 viewBox="0 0 144 144" style="enable-background:new 0 0 144 144;" xml:space="preserve">
<style type="text/css">
	.st0{enable-background:new    ;}
	.st1{fill:#CE97F0;}
	.st2{fill:#3A5A85;}
</style>
<g class="st0">
	<path class="st1" d="M36.5,24.9c-17.4,13.2-11,30-12.8,41.1c-1.8,11.1-8.9,26.3-0.8,40c9.4,16,64.2,28.8,86.6,13.4
		c14.7-10.1,7.6-30.3,9.7-43.3c2.1-13,10.3-26,0.7-42C112.5,21.6,57.3,9.1,36.5,24.9z"/>
</g>
<g>
	<path class="st2" d="M73,36.2c0,0,0,4.1,0,10.3c0,3.1,0.1,6.6,0.2,10.4c0,3.8,0.1,7.8,0.1,11.8c0.1,8-0.3,16-0.9,22
		c-0.3,3-0.6,5.5-1,7.3c-0.3,1.8-0.5,2.8-0.5,2.8s0.6-0.8,1.6-2.4c1-1.5,2.2-3.9,3.3-6.9c1.1-3,2.1-6.6,2.6-10.5
		c0.7-3.9,0.9-8.1,0.9-12.3c-0.1-8.4-1.3-16.7-2.9-22.7C75,40,73,36.2,73,36.2z"/>
</g>
<g>
	<path class="st2" d="M96.3,69.1c-5.9-2.4-14.2-4.4-22.7-5.1c-4.2-0.3-8.5-0.4-12.5-0.2c-4,0.2-7.7,0.7-10.8,1.5
		c-3.1,0.7-5.7,1.6-7.4,2.3c-1.7,0.8-2.6,1.3-2.6,1.3s1.1,0,2.9-0.1c1.8-0.1,4.4-0.1,7.5,0c6.1,0.1,14.2,0.5,22.4,1.3
		c8.1,0.7,16.2,1.6,22.3,2.4c3.1,0.4,5.6,0.8,7.4,1.2c1.8,0.4,2.9,0.6,2.9,0.6s-0.8-0.7-2.4-1.7C101.7,71.5,99.3,70.2,96.3,69.1z"/>
</g>
</svg>
