<?xml version="1.0" encoding="utf-8"?>
<!-- Generator: Adobe Illustrator 23.0.3, SVG Export Plug-In . SVG Version: 6.00 Build 0)  -->
<svg version="1.1" id="Layer_1" xmlns="http://www.w3.org/2000/svg" xmlns:xlink="http://www.w3.org/1999/xlink" x="0px" y="0px"
	 viewBox="0 0 144 144" style="enable-background:new 0 0 144 144;" xml:space="preserve">
<style type="text/css">
	.st0{enable-background:new    ;}
	.st1{fill:#CE97F0;}
	.st2{fill:#3A5A85;}
</style>
<g class="st0">
	<path class="st1" d="M82.5,27.4c-12.6-2-27.9-10.1-39.3-5.4C31.7,26.8,33,49,30.1,59.3s-12.5,23.5-7.2,37
		c5.2,13.5,25.3,16.1,36.5,19.4c11.2,3.2,27,10.7,40.7,3.2c13.9-7.6,9.3-25.6,11.9-35.2c2.6-9.6,15.6-22,9.2-38.6
		C116.3,32.3,95.1,29.4,82.5,27.4z"/>
</g>
<g>
	<path class="st2" d="M75.4,41.1c0,0-0.9,4.1-1.8,9.9c-1,5.9-2.4,13.5-4.6,20.9c-2.1,7.4-4.9,14.7-7,20.3c-2.1,5.6-3.4,9.5-3.4,9.5
		s3-2.9,6.5-7.9c1.8-2.5,3.6-5.5,5.4-9c0.8-1.7,1.7-3.5,2.4-5.4c0.7-1.9,1.4-3.9,2-5.8c0.5-2,1-4,1.4-6c0.4-2,0.6-4,0.8-5.9
		c0.3-3.8,0.3-7.4,0-10.5C76.6,45,75.4,41.1,75.4,41.1z"/>
</g>
<g>
	<path class="st2" d="M90.9,77.4c-2.2-1.7-5-3.4-8.2-5c-3.1-1.6-6.7-2.8-10.2-4c-7.2-2-14.7-2.8-20.3-2.4c-5.6,0.3-9.2,1.4-9.2,1.4
		s3.7,0.9,8.9,2.1c5.3,1.2,12.1,2.9,18.9,4.8c6.8,1.9,13.4,4.2,18.4,6.1c2.5,1,4.5,1.8,6.1,2.5c1.5,0.7,2.4,1,2.4,1S97,83.2,96,82
		C94.9,80.8,93.1,79.1,90.9,77.4z"/>
</g>
</svg>
