<?xml version="1.0" encoding="utf-8"?>
<!-- Generator: Adobe Illustrator 23.0.3, SVG Export Plug-In . SVG Version: 6.00 Build 0)  -->
<svg version="1.1" id="Layer_1" xmlns="http://www.w3.org/2000/svg" xmlns:xlink="http://www.w3.org/1999/xlink" x="0px" y="0px"
	 viewBox="0 0 144 144" style="enable-background:new 0 0 144 144;" xml:space="preserve">
<style type="text/css">
	.st0{enable-background:new    ;}
	.st1{fill:#CE97F0;}
	.st2{fill:#3A5A85;}
</style>
<g class="st0">
	<path class="st1" d="M101.1,22.1c-11.4-4.7-26.7,3.3-39.3,5.4c-12.6,2-33.8,4.9-38.6,17.5c-6.4,16.6,6.6,29,9.2,38.6
		c2.6,9.6-2,27.6,11.9,35.2c13.7,7.5,29.5,0.1,40.7-3.2c11.2-3.2,31.2-5.9,36.5-19.4c5.2-13.5-4.3-26.8-7.2-37
		S112.5,26.8,101.1,22.1z"/>
</g>
<g>
	<path class="st2" d="M75.2,71.9c-2.2-7.4-3.6-15-4.6-20.9c-1-5.8-1.8-9.9-1.8-9.9s-1.2,3.9-1.6,10.1c-0.3,3.1-0.3,6.6,0,10.5
		c0.2,1.9,0.4,3.9,0.8,5.9c0.4,2,0.9,4,1.4,6c0.6,2,1.3,3.9,2,5.8c0.7,1.9,1.6,3.7,2.4,5.4c1.7,3.4,3.6,6.5,5.4,9
		c3.5,5,6.5,7.9,6.5,7.9s-1.2-3.9-3.4-9.5C80.1,86.5,77.3,79.3,75.2,71.9z"/>
</g>
<g>
	<path class="st2" d="M71.8,68.5c-3.6,1.1-7.1,2.4-10.2,4c-3.2,1.6-6,3.3-8.2,5c-2.3,1.7-4,3.4-5.1,4.5c-1.1,1.2-1.7,2-1.7,2
		s0.9-0.3,2.4-1c1.5-0.7,3.5-1.5,6.1-2.5c5-2,11.6-4.2,18.4-6.1c6.8-2,13.6-3.6,18.9-4.8c5.2-1.2,8.9-2.1,8.9-2.1s-3.6-1.2-9.2-1.4
		C86.5,65.7,79,66.4,71.8,68.5z"/>
</g>
</svg>
