<?xml version="1.0" encoding="utf-8"?>
<!-- Generator: Adobe Illustrator 23.0.3, SVG Export Plug-In . SVG Version: 6.00 Build 0)  -->
<svg version="1.1" id="Layer_1" xmlns="http://www.w3.org/2000/svg" xmlns:xlink="http://www.w3.org/1999/xlink" x="0px" y="0px"
	 viewBox="0 0 144 144" style="enable-background:new 0 0 144 144;" xml:space="preserve">
<style type="text/css">
	.st0{enable-background:new    ;}
	.st1{fill:#CE97F0;}
	.st2{fill:#3A5A85;}
</style>
<g class="st0">
	<path class="st1" d="M107.7,24.9c-20.8-15.8-76-3.3-83.5,9.2c-9.6,16-1.4,29,0.7,42c2.1,13-5,33.2,9.7,43.3
		c22.4,15.4,77.2,2.6,86.6-13.4c8.1-13.7,0.9-28.9-0.8-40C118.8,54.8,125.1,38.1,107.7,24.9z"/>
</g>
<g>
	<path class="st2" d="M71.8,90.8c-0.6-6-0.9-14-0.9-22c0-4,0.1-8,0.1-11.8c0.1-3.8,0.1-7.4,0.2-10.4c0-6.2,0-10.3,0-10.3
		s-2,3.8-3.5,9.9c-1.6,6.1-2.8,14.3-2.9,22.7c0.1,4.2,0.3,8.4,0.9,12.3c0.6,3.9,1.5,7.5,2.6,10.5c1.1,3,2.3,5.4,3.3,6.9
		c1,1.6,1.6,2.4,1.6,2.4s-0.2-1-0.5-2.8C72.4,96.3,72.1,93.8,71.8,90.8z"/>
</g>
<g>
	<path class="st2" d="M93.8,65.2C90.7,64.5,87,64,83,63.7c-4-0.2-8.2-0.1-12.5,0.2c-8.4,0.7-16.7,2.8-22.7,5.1c-3,1.1-5.4,2.5-7,3.4
		c-1.5,1-2.4,1.7-2.4,1.7s1-0.2,2.9-0.6c1.8-0.3,4.3-0.7,7.4-1.2c6.1-0.8,14.2-1.8,22.3-2.4c8.1-0.8,16.2-1.2,22.4-1.3
		c3.1-0.1,5.7,0,7.5,0c1.9,0,2.9,0.1,2.9,0.1s-0.9-0.5-2.6-1.3C99.5,66.8,96.9,65.9,93.8,65.2z"/>
</g>
</svg>
