<?xml version="1.0" encoding="utf-8"?>
<!-- Generator: Adobe Illustrator 23.0.3, SVG Export Plug-In . SVG Version: 6.00 Build 0)  -->
<svg version="1.1" id="Layer_1" xmlns="http://www.w3.org/2000/svg" xmlns:xlink="http://www.w3.org/1999/xlink" x="0px" y="0px"
	 viewBox="0 0 144 144" style="enable-background:new 0 0 144 144;" xml:space="preserve">
<style type="text/css">
	.st0{enable-background:new    ;}
	.st1{fill:#CE97F0;}
	.st2{fill:#3A5A85;}
</style>
<g class="st0">
	<path class="st1" d="M78.3,28.4c-11.3-0.8-29.4-10.6-42.9-2c-13.5,8.7-10,30-11.7,41.6c-1.8,11.7-6.9,29.7-0.6,40.2
		c10.1,16.8,26.9,10.9,48.1,14.4c18.6,3.1,31.2,1.5,38.8-5.1c16.3-14.1,17.6-68.7,7.2-81.2C110,27.9,89.6,29.2,78.3,28.4z"/>
</g>
<g>
	<path class="st2" d="M66.2,75.3c-0.1,4.3,0,8.6,0.4,12.7c0.5,4,1.2,7.8,2.2,10.9c0.9,3.1,2.1,5.6,3,7.3c1,1.7,1.5,2.5,1.5,2.5
		s-0.1-1.1-0.4-2.9c-0.3-1.8-0.5-4.4-0.7-7.5C72,92,72,83.8,72.3,75.5c0.1-4.1,0.4-8.3,0.5-12.2c0.2-3.9,0.4-7.6,0.6-10.7
		c0.4-6.4,0.7-10.6,0.7-10.6s-2.3,3.7-4.2,10C68.1,58.1,66.6,66.6,66.2,75.3z"/>
</g>
<g>
	<path class="st2" d="M91.9,74.4c-6,0.5-14,0.7-22,0.4c-4-0.1-8-0.3-11.8-0.5c-3.8-0.2-7.4-0.4-10.4-0.5c-6.1-0.3-10.3-0.3-10.3-0.3
		s3.7,2,9.7,3.8c6,1.8,14.2,3.4,22.6,3.7c4.2,0,8.4,0,12.3-0.6c3.9-0.5,7.6-1.4,10.6-2.4c1.5-0.4,2.8-1.1,4-1.6
		c1.2-0.5,2.2-1.1,3-1.6c1.6-1,2.4-1.6,2.4-1.6s-1,0.2-2.8,0.4C97.4,73.8,94.8,74.1,91.9,74.4z"/>
</g>
</svg>
