<?xml version="1.0" encoding="utf-8"?>
<!-- Generator: Adobe Illustrator 23.0.3, SVG Export Plug-In . SVG Version: 6.00 Build 0)  -->
<svg version="1.1" id="Layer_1" xmlns="http://www.w3.org/2000/svg" xmlns:xlink="http://www.w3.org/1999/xlink" x="0px" y="0px"
	 viewBox="0 0 144 144" style="enable-background:new 0 0 144 144;" xml:space="preserve">
<style type="text/css">
	.st0{enable-background:new    ;}
	.st1{fill:#CE97F0;}
	.st2{fill:#3A5A85;}
</style>
<g class="st0">
	<path class="st1" d="M86.3,28C74,23.8,53.9,17.9,44.7,23.8c-8.7,5.6-6.4,27.8-10.1,35.3C31,66.7,17.5,83,22.9,95.6
		c6.6,15.6,26.6,15.4,36.6,18.3c11.4,3.4,25.1,11.8,40,4.2c14.8-7.5,11.7-25.4,13.7-33.8c2-8.4,13.3-20.8,9.1-32.6
		C118,40,98.6,32.2,86.3,28z"/>
</g>
<g>
	<path class="st2" d="M77.7,52.3c-3.2,5.3-6.7,12.9-9,20.8c-1.1,4-2.1,8-2.6,11.9c-0.5,3.9-0.8,7.5-0.6,10.7c0.1,3.1,0.5,5.7,1,7.5
		c0.5,1.8,0.8,2.8,0.8,2.8s0.2-1,0.4-2.8c0.3-1.8,0.7-4.2,1.3-7.2c1.2-5.9,3.2-13.5,5.5-21.1c1-3.8,2.3-7.6,3.3-11.2
		c1.1-3.6,2.1-7,3-9.8c1.8-5.9,3-9.8,3-9.8S80.9,46.9,77.7,52.3z"/>
</g>
<g>
	<path class="st2" d="M90.6,78.3c-2.6-0.7-5.6-1.5-8.9-2.4c-3.2-0.9-6.6-1.8-10-3c-6.7-2.1-13.4-4.5-18.4-6.5
		c-5.1-2-8.6-3.3-8.6-3.3s2.3,3,6.9,6.3c4.5,3.4,11.1,7,18.3,9.2c3.6,1.1,7.2,2,10.7,2.4c3.5,0.5,6.7,0.7,9.5,0.6
		c2.8,0,5.1-0.3,6.7-0.5c1.6-0.2,2.5-0.4,2.5-0.4s-0.9-0.3-2.5-0.8C95.5,79.7,93.3,79.1,90.6,78.3z"/>
</g>
</svg>
