<?xml version="1.0" encoding="utf-8"?>
<!-- Generator: Adobe Illustrator 23.0.3, SVG Export Plug-In . SVG Version: 6.00 Build 0)  -->
<svg version="1.1" id="Layer_1" xmlns="http://www.w3.org/2000/svg" xmlns:xlink="http://www.w3.org/1999/xlink" x="0px" y="0px"
	 viewBox="0 0 144 144" style="enable-background:new 0 0 144 144;" xml:space="preserve">
<style type="text/css">
	.st0{enable-background:new    ;}
	.st1{fill:#72AEF2;}
	.st2{fill:#A6CCFF;}
</style>
<g class="st0">
	<path class="st1" d="M40.2,95.6c12.2,8.1,51.2,19.3,63.4-1.5C115.5,74,89.7,45.4,81.4,37C73.1,28.5,28,87.5,40.2,95.6z"/>
</g>
<g class="st0">
	<path class="st2" d="M82,37.5c-6.2-6.2-22.1-2.3-37.2,18.1c-15,20.2-11.3,38-3.7,40.7c8,2.7,13-5.7,19.2-9.3
		C69,82,77.2,81.4,80.4,76c3.2-5.4,0.7-10.6,1.1-17.2C81.9,52.1,88,43.5,82,37.5z"/>
</g>
</svg>
