<?xml version="1.0" encoding="utf-8"?>
<!-- Generator: Adobe Illustrator 23.0.3, SVG Export Plug-In . SVG Version: 6.00 Build 0)  -->
<svg version="1.1" id="Layer_1" xmlns="http://www.w3.org/2000/svg" xmlns:xlink="http://www.w3.org/1999/xlink" x="0px" y="0px"
	 viewBox="0 0 144 144" style="enable-background:new 0 0 144 144;" xml:space="preserve">
<style type="text/css">
	.st0{enable-background:new    ;}
	.st1{fill:#72AEF2;}
	.st2{fill:#A6CCFF;}
</style>
<g class="st0">
	<path class="st1" d="M62.2,37C53.9,45.4,28.1,74,40,94.1c12.3,20.8,51.2,9.6,63.4,1.5C115.6,87.5,70.5,28.5,62.2,37z"/>
</g>
<g class="st0">
	<path class="st2" d="M61.6,37.5c-6,6,0.2,14.6,0.5,21.2c0.3,6.6-2.2,11.8,1.1,17.2c3.2,5.4,11.4,6.1,20.1,11
		c6.3,3.6,11.3,12.1,19.2,9.3c7.6-2.6,11.3-20.4-3.7-40.7C83.6,35.3,67.8,31.4,61.6,37.5z"/>
</g>
</svg>
