<?xml version="1.0" encoding="utf-8"?>
<!-- Generator: Adobe Illustrator 23.0.3, SVG Export Plug-In . SVG Version: 6.00 Build 0)  -->
<svg version="1.1" id="Layer_1" xmlns="http://www.w3.org/2000/svg" xmlns:xlink="http://www.w3.org/1999/xlink" x="0px" y="0px"
	 viewBox="0 0 144 144" style="enable-background:new 0 0 144 144;" xml:space="preserve">
<style type="text/css">
	.st0{enable-background:new    ;}
	.st1{fill:#CE97F0;}
	.st2{fill:#3A5A85;}
</style>
<g class="st0">
	<path class="st1" d="M99.9,23.8c-9.2-5.9-29.3,0-41.6,4.2C46,32.2,26.5,40,22.4,51.8c-4.2,11.8,7.1,24.2,9.1,32.6
		c2,8.4-1.2,26.2,13.7,33.8c14.8,7.5,28.5-0.9,40-4.2c10-3,30-2.7,36.6-18.3c5.4-12.6-8.1-28.9-11.7-36.4
		C106.3,51.6,108.5,29.4,99.9,23.8z"/>
</g>
<g>
	<path class="st2" d="M75.8,73.1c-2.3-7.9-5.8-15.5-9-20.8c-3.1-5.4-6.2-8.3-6.2-8.3s1.2,3.9,3,9.8c0.9,2.9,1.9,6.2,3,9.8
		c1,3.6,2.3,7.4,3.3,11.2c2.3,7.6,4.3,15.3,5.5,21.1c0.6,2.9,1.1,5.4,1.3,7.2c0.3,1.8,0.4,2.8,0.4,2.8s0.3-1,0.8-2.8
		c0.4-1.8,0.9-4.4,1-7.5c0.2-3.1-0.1-6.8-0.6-10.7C77.9,81.1,76.9,77.1,75.8,73.1z"/>
</g>
<g>
	<path class="st2" d="M72.7,72.9c-3.3,1.1-6.8,2-10,3c-3.2,0.9-6.3,1.7-8.9,2.4c-2.6,0.7-4.8,1.3-6.4,1.8c-1.6,0.5-2.5,0.8-2.5,0.8
		s0.9,0.2,2.5,0.4c1.6,0.3,3.9,0.5,6.7,0.5c2.8,0,6.1-0.1,9.5-0.6c3.5-0.5,7.1-1.3,10.7-2.4c7.2-2.2,13.8-5.8,18.3-9.2
		c4.5-3.4,6.8-6.3,6.8-6.3s-3.4,1.3-8.5,3.3C86.1,68.4,79.5,70.9,72.7,72.9z"/>
</g>
</svg>
