<?xml version="1.0" encoding="utf-8"?>
<!-- Generator: Adobe Illustrator 23.0.3, SVG Export Plug-In . SVG Version: 6.00 Build 0)  -->
<svg version="1.1" id="Layer_1" xmlns="http://www.w3.org/2000/svg" xmlns:xlink="http://www.w3.org/1999/xlink" x="0px" y="0px"
	 viewBox="0 0 144 144" style="enable-background:new 0 0 144 144;" xml:space="preserve">
<style type="text/css">
	.st0{enable-background:new    ;}
	.st1{fill:#CE97F0;}
	.st2{fill:#3A5A85;}
</style>
<g class="st0">
	<path class="st1" d="M109.1,26.4c-13.5-8.7-31.6,1.1-42.9,2c-11.3,0.8-31.6-0.5-38.8,8c-10.5,12.4-9.1,67.1,7.2,81.2
		c7.6,6.6,20.2,8.2,38.8,5.1c21.1-3.5,38,2.4,48.1-14.4c6.3-10.5,1.1-28.6-0.6-40.2C119.1,56.4,122.6,35.1,109.1,26.4z"/>
</g>
<g>
	<path class="st2" d="M73.7,49.3c-1.7-6.5-4-10.5-4-10.5s0.2,4.4,0.5,11c0.1,3.3,0.3,7.1,0.5,11.1c0.1,4.1,0.4,8.4,0.4,12.7
		c0.3,8.6,0.1,17.2-0.3,23.7c-0.2,3.2-0.5,5.9-0.7,7.9c-0.2,1.9-0.4,3-0.4,3s0.6-0.9,1.5-2.7c0.9-1.7,2.1-4.3,3-7.6
		c1-3.2,1.8-7.1,2.3-11.3c0.5-4.2,0.7-8.7,0.6-13.1C77,64.6,75.5,55.7,73.7,49.3z"/>
</g>
<g>
	<path class="st2" d="M86.5,74.3c-3.8,0.2-7.8,0.4-11.8,0.5c-8,0.3-16,0.1-22-0.4c-3-0.3-5.5-0.5-7.3-0.9c-1.8-0.3-2.8-0.4-2.8-0.4
		s0.8,0.6,2.4,1.6c0.8,0.5,1.8,1.1,3,1.6c1.2,0.5,2.5,1.2,4,1.6c3,1,6.6,2,10.6,2.4c3.9,0.6,8.1,0.7,12.3,0.6
		c8.4-0.3,16.6-1.9,22.6-3.7c6-1.8,9.7-3.8,9.7-3.8s-4.2,0-10.3,0.3C93.8,73.9,90.3,74.1,86.5,74.3z"/>
</g>
</svg>
