<?xml version="1.0" encoding="utf-8"?>
<!-- Generator: Adobe Illustrator 23.0.3, SVG Export Plug-In . SVG Version: 6.00 Build 0)  -->
<svg version="1.1" id="Layer_1" xmlns="http://www.w3.org/2000/svg" xmlns:xlink="http://www.w3.org/1999/xlink" x="0px" y="0px"
	 viewBox="0 0 144 144" style="enable-background:new 0 0 144 144;" xml:space="preserve">
<style type="text/css">
	.st0{enable-background:new    ;}
	.st1{fill:#CE97F0;}
	.st2{fill:#3A5A85;}
</style>
<g class="st0">
	<path class="st1" d="M118.6,31.9c-9.4-15.9-31.1-9-45.1-9.4c-14-0.4-27.3-9.4-40.1,0.9c-12.8,10.3-4.7,32.2-7.1,45
		c-2.4,12.8-11,26.7-0.4,41.8C36.6,125.3,58.6,121,70.6,122c12,0.9,29.4,8.3,42.6-2.8c13.2-11.1,3.9-31,4.1-42.7
		C117.6,64.8,129.8,50.7,118.6,31.9z"/>
</g>
<g>
	<path class="st2" d="M72.2,35.2c0,0-0.2,4.6-0.4,11.6c-0.2,6.9-0.5,16-1.1,25c-0.2,4.5-0.6,9-1,13.2c-0.4,4.2-0.8,8.1-1.4,11.5
		c-0.5,3.4-1,6.2-1.4,8.2c-0.4,2-0.6,3.2-0.6,3.2s0.7-0.9,1.8-2.7c1.1-1.7,2.5-4.4,3.7-7.7c1.3-3.3,2.4-7.3,3.3-11.6
		c0.9-4.3,1.4-9,1.7-13.7c0.5-9.4-0.2-18.7-1.5-25.6C74.1,39.6,72.2,35.2,72.2,35.2z"/>
</g>
<g>
	<path class="st2" d="M72.5,73c-7.5-0.7-14.8-1.7-20.4-2.9c-1.4-0.2-2.6-0.6-3.8-0.9c-1.1-0.3-2.1-0.5-2.9-0.8
		c-1.7-0.5-2.6-0.8-2.6-0.8s0.7,0.7,2,1.8c0.7,0.6,1.5,1.3,2.5,1.9c1,0.6,2.2,1.5,3.5,2.1c2.7,1.4,5.9,2.7,9.5,3.6
		c3.6,1.1,7.5,1.6,11.4,2.1c3.9,0.3,7.8,0.5,11.5,0.3c3.7-0.1,7.1-0.5,10-1c5.8-0.9,9.5-2.3,9.5-2.3S99,75.5,93.3,75
		C87.6,74.4,80.1,73.7,72.5,73z"/>
</g>
</svg>
