<?xml version="1.0" encoding="utf-8"?>
<!-- Generator: Adobe Illustrator 23.0.3, SVG Export Plug-In . SVG Version: 6.00 Build 0)  -->
<svg version="1.1" id="Layer_1" xmlns="http://www.w3.org/2000/svg" xmlns:xlink="http://www.w3.org/1999/xlink" x="0px" y="0px"
	 viewBox="0 0 144 144" style="enable-background:new 0 0 144 144;" xml:space="preserve">
<style type="text/css">
	.st0{enable-background:new    ;}
	.st1{fill:#CE97F0;}
	.st2{fill:#3A5A85;}
</style>
<g class="st0">
	<path class="st1" d="M40.8,13.6c-21.6,11.4-17.6,31-21.6,43c-4,11.9-14.6,27.4-8.2,44c7.5,19.4,65.6,43.5,93.1,30.6
		c18-8.5,13.9-32,18.6-46c4.7-13.9,16.1-26.8,8.4-46.2C125.2,23.8,66.7-0.1,40.8,13.6z"/>
</g>
<g>
	<path class="st2" d="M79.1,32.7c0,0-0.7,4.6-1.7,11.4c-0.5,3.4-1,7.3-1.6,11.6c-0.6,4.2-1.2,8.7-2,13.1c-1.4,8.9-3.3,17.6-5.2,24.1
		c-1,3.2-1.8,6-2.6,7.8c-0.7,1.9-1.1,3-1.1,3s0.8-0.8,2.2-2.4c1.4-1.5,3.1-4,4.8-7.1c1.7-3.1,3.4-6.9,4.7-11.1
		C78,79,79,74.4,79.8,69.8c1.5-9.2,1.7-18.6,1.1-25.6C80.4,37.3,79.1,32.7,79.1,32.7z"/>
</g>
<g>
	<path class="st2" d="M105.8,78.4c-1.6-1.3-4-3.2-7.1-4.9c-6.1-3.6-14.9-7.3-24.1-9.7c-4.6-1.1-9.2-2-13.7-2.5
		c-4.4-0.5-8.6-0.7-12.2-0.4c-3.6,0.1-6.5,0.6-8.5,1.1c-2,0.5-3.2,0.8-3.2,0.8s1.2,0.1,3.2,0.4c2,0.2,4.9,0.6,8.3,1.2
		c6.8,1.1,15.7,3,24.5,5.4c8.8,2.2,17.6,4.8,24.2,6.9c3.3,1.1,6,2,7.9,2.8c1.9,0.8,3,1.2,3,1.2S107.3,79.8,105.8,78.4z"/>
</g>
</svg>
