<?xml version="1.0" encoding="utf-8"?>
<!-- Generator: Adobe Illustrator 23.0.3, SVG Export Plug-In . SVG Version: 6.00 Build 0)  -->
<svg version="1.1" id="Layer_1" xmlns="http://www.w3.org/2000/svg" xmlns:xlink="http://www.w3.org/1999/xlink" x="0px" y="0px"
	 viewBox="0 0 144 144" style="enable-background:new 0 0 144 144;" xml:space="preserve">
<style type="text/css">
	.st0{enable-background:new    ;}
	.st1{fill:#CE97F0;}
	.st2{fill:#3A5A85;}
</style>
<g class="st0">
	<path class="st1" d="M92.3,21.2C77.6,16.4,60.8,3.7,46.2,7.2c-14.6,3.4-17.4,30.3-22.9,42S3.8,74.9,7.4,92.1
		c3.6,17.2,27.1,24.3,39.9,30.3c12.8,6.1,30.3,18.1,48.2,11.8c18.2-6.4,16.1-28.8,21.1-39.9c5-11,23-23.4,18.6-44.5
		C131.8,33.7,107,26.1,92.3,21.2z"/>
</g>
<g>
	<path class="st2" d="M85.2,39.5c-0.6,2-1.5,4.9-2.6,8.4c-2.1,6.9-5.2,15.9-9.1,24.4c-3.9,8.6-8.7,16.7-12.4,23
		c-3.7,6.2-6.1,10.6-6.1,10.6s3.9-3,8.9-8.5c2.5-2.7,5.2-6.1,7.9-9.9c1.3-2,2.7-3.9,3.8-6.1c1.2-2.1,2.3-4.4,3.4-6.6
		c1-2.3,1.9-4.6,2.8-6.9c0.9-2.3,1.5-4.6,2.1-6.9c1.2-4.5,1.8-8.8,2.2-12.5c0.7-7.4,0.2-12.3,0.2-12.3S85.9,37.5,85.2,39.5z"/>
</g>
<g>
	<path class="st2" d="M97.4,78.3c-2.4-2.4-5.4-5-8.9-7.4C85,68.5,81,66.3,77,64.3c-4.1-1.9-8.3-3.5-12.4-4.7
		c-4.1-1.2-7.9-2-11.3-2.4c-6.7-0.9-11.2-0.4-11.2-0.4s4.1,1.5,10.4,3.8c6.1,2.3,14.1,5.5,21.9,9.2c7.8,3.7,15.3,7.8,20.8,11.3
		c2.8,1.7,5,3.2,6.6,4.3c1.6,1.1,2.6,1.7,2.6,1.7s-0.6-0.9-1.7-2.6C101.6,83,99.8,80.7,97.4,78.3z"/>
</g>
</svg>
