<?xml version="1.0" encoding="utf-8"?>
<!-- Generator: Adobe Illustrator 23.0.3, SVG Export Plug-In . SVG Version: 6.00 Build 0)  -->
<svg version="1.1" id="Layer_1" xmlns="http://www.w3.org/2000/svg" xmlns:xlink="http://www.w3.org/1999/xlink" x="0px" y="0px"
	 viewBox="0 0 144 144" style="enable-background:new 0 0 144 144;" xml:space="preserve">
<style type="text/css">
	.st0{enable-background:new    ;}
	.st1{fill:#A195F0;}
	.st2{fill:#3A5A85;}
</style>
<g class="st0">
	<path class="st1" d="M80.4,39.5C73.2,37,64.1,28,53.1,29.2c-9,0.9-28.3,35.8-24.5,54c2.9,13.9,17,15.6,25.6,20.2
		c8.5,4.6,12.3,12.9,26.1,11.8c18.4-1.5,38.8-45,30.7-60.2C102.8,39.8,87.6,42,80.4,39.5z"/>
</g>
<g>
	<path class="st2" d="M76,51.6c-2.6,1.6-5.5,4-7.8,7.4c-1.1,1.7-2,3.3-2.9,5.1c-0.8,1.8-1.7,3.6-2.5,5.4c-1.5,3.7-2.9,7.3-3.9,10.9
		c-0.2,0.7-0.3,0.9-0.4,1.4c-0.1,0.5-0.2,1.1-0.3,1.7c-0.1,1-0.1,2-0.1,2.9c0.1,1.8,0.4,3.5,0.8,5c1.6,6,4.3,9.1,4.3,9.1
		s-0.9-4-0.9-9.6c0-1.4,0.1-2.9,0.3-4.4c0.1-0.7,0.3-1.5,0.5-2.2l0.3-0.9c0.1-0.4,0.3-1,0.5-1.1c1.4-3.3,3-6.8,4.5-10.4
		c0.7-1.8,1.5-3.5,2.2-5.2c0.8-1.7,1.5-3.5,2.2-4.9c1.4-2.9,3.4-5.4,5.3-7.4c1.9-2,3.8-3.6,5.1-4.8c1.3-1.1,2.1-1.8,2.1-1.8
		s-1,0.2-2.7,0.7C81,49.1,78.6,50,76,51.6z"/>
</g>
<g>
	<path class="st2" d="M70.8,45.5c-1.1-1.3-1.8-1.9-1.8-1.9s0.3,0.9,0.7,2.4c0.4,1.5,0.7,3.7,0.5,6.1c-0.1,1.2-0.4,2.5-0.9,3.7
		c-0.5,1.3-1.1,2.4-1.9,3.9c-1.6,3-3.1,6.3-4.6,9.5c-1.4,3.3-2.8,6.6-3.9,9.8c-0.6,1.7-1,2.9-1.7,3.9c-0.7,1.1-1.6,2.1-2.5,2.9
		c-3.6,3.4-7.3,4.5-7.3,4.5s0.9,0.3,2.6,0.2c1.7-0.1,4.1-0.5,6.8-1.8c1.3-0.7,2.7-1.6,4-2.9c1.4-1.3,2.4-3.1,3-4.5
		c1.6-3,3.1-6.3,4.6-9.5c1.4-3.3,2.8-6.6,3.9-9.8c0.6-1.6,1.2-3.5,1.4-5.2c0.3-1.7,0.2-3.4-0.1-4.9C73.2,48.9,71.9,46.8,70.8,45.5z"
		/>
</g>
</svg>
