<?xml version="1.0" encoding="utf-8"?>
<!-- Generator: Adobe Illustrator 23.0.3, SVG Export Plug-In . SVG Version: 6.00 Build 0)  -->
<svg version="1.1" id="Layer_1" xmlns="http://www.w3.org/2000/svg" xmlns:xlink="http://www.w3.org/1999/xlink" x="0px" y="0px"
	 viewBox="0 0 144 144" style="enable-background:new 0 0 144 144;" xml:space="preserve">
<style type="text/css">
	.st0{enable-background:new    ;}
	.st1{fill:#72AEF2;}
	.st2{fill:#A6CCFF;}
</style>
<g class="st0">
	<path class="st1" d="M96.6,37.6c-12.8-8.2-47.5,5.5-56.4,19.1c-8.9,13.6,50.7,58.3,60.5,43.9C110.5,86.1,113.9,48.7,96.6,37.6z"/>
</g>
<g class="st0">
	<path class="st2" d="M87.8,85.6c-4.6-5.4-2.6-13.5-9.3-18.6c-5-3.7-11.8-3.7-19.4-4.6c-7.7-0.9-14.2-10.7-20.5-2.3
		c-4.5,5.9,0.4,24.1,18.7,36.6c18.4,12.5,36.9,15.2,42.8,4.8C104.6,93.6,92.5,90.9,87.8,85.6z"/>
</g>
</svg>
