<?xml version="1.0" encoding="utf-8"?>
<!-- Generator: Adobe Illustrator 23.0.3, SVG Export Plug-In . SVG Version: 6.00 Build 0)  -->
<svg version="1.1" id="Layer_1" xmlns="http://www.w3.org/2000/svg" xmlns:xlink="http://www.w3.org/1999/xlink" x="0px" y="0px"
	 viewBox="0 0 144 144" style="enable-background:new 0 0 144 144;" xml:space="preserve">
<style type="text/css">
	.st0{enable-background:new    ;}
	.st1{fill:#A195F0;}
	.st2{fill:#3A5A85;}
</style>
<g class="st0">
	<path class="st1" d="M82.3,30.2C70.6,27.8,67,33.5,55.1,40.8C44,47.6,34.9,48.5,32.4,60c-3.5,16.1,15.2,48,32,52.3
		c12.2,3.1,19.6-6.9,30.6-14.3c10.5-7.1,15.3-10.5,17.5-21.1C115.2,63.4,96.1,33.1,82.3,30.2z"/>
</g>
<g>
	<path class="st2" d="M82.5,76c-1.6-3.2-3.7-6.2-5.7-9.2c-1-1.4-2.1-2.9-3.1-4.3c-1.1-1.5-1.6-2.4-3.1-4.4c-2.8-3.2-6.2-4.5-9-5.2
		c-2.8-0.7-5.3-0.7-6.9-0.5c-1.7,0.2-2.5,0.6-2.5,0.6s3.7,0.7,8.1,3.2c2.2,1.2,4.6,3,6,5.1c0.5,0.8,1.5,3,2.5,4.4c1,1.5,2,3,3,4.5
		c2.1,2.9,4.2,5.8,6,8.4c1,1.5,1.5,2.2,1.8,3.5c0.3,1.3,0.5,2.6,0.6,3.9c0.4,5.1,0,8.9,0,8.9s2.4-3,3.5-8.7c0.3-1.4,0.5-3,0.4-4.8
		C84.3,79.7,83.3,77.4,82.5,76z"/>
</g>
<g>
	<path class="st2" d="M94,83.1c-1.5-0.3-3.6-0.9-5.9-1.9c-1.1-0.5-2.3-1.2-3.3-1.9c-0.5-0.3-1-0.9-1.2-1.1l-0.3-0.5
		c0,0-0.2-0.3-0.1-0.1l-0.1-0.3l-0.6-1c-1.7-2.9-3.6-5.9-5.5-8.8c-2-2.9-3.9-5.8-5.7-8.5c-0.8-1.2-1.2-2.1-1.5-3.4
		c-0.2-1.3-0.3-2.6-0.4-3.9c0-2.5,0.1-4.8,0.2-6.4c0-1.6,0-2.5,0-2.5s-0.5,0.8-1.2,2.2c-0.7,1.4-1.8,3.5-2.5,6.2
		c-0.4,1.4-0.7,2.9-0.7,4.7c-0.1,1.7,0.4,4,1.3,5.7c1.5,3.2,3.4,6.2,5.4,9.2c2,3,4.1,5.9,6.2,8.5l0.8,1l0.2,0.2
		c0.3,0.4,0.2,0.2,0.3,0.4l0.5,0.4c1,0.9,1.8,1.3,2.6,1.7c1.6,0.8,3.2,1.1,4.6,1.3c2.9,0.4,5.3,0.2,6.9-0.2c1.6-0.4,2.4-0.9,2.4-0.9
		S95.5,83.4,94,83.1z"/>
</g>
</svg>
