<?xml version="1.0" encoding="utf-8"?>
<!-- Generator: Adobe Illustrator 23.0.3, SVG Export Plug-In . SVG Version: 6.00 Build 0)  -->
<svg version="1.1" id="Layer_1" xmlns="http://www.w3.org/2000/svg" xmlns:xlink="http://www.w3.org/1999/xlink" x="0px" y="0px"
	 viewBox="0 0 144 144" style="enable-background:new 0 0 144 144;" xml:space="preserve">
<style type="text/css">
	.st0{enable-background:new    ;}
	.st1{fill:#A195F0;}
	.st2{fill:#3A5A85;}
</style>
<g class="st0">
	<path class="st1" d="M91.2,29.2C80.1,28,71.1,37,63.9,39.5C56.7,42,41.5,39.8,33.4,55c-8.1,15.2,12.2,58.7,30.7,60.2
		c13.9,1.1,17.6-7.2,26.1-11.8c8.5-4.6,22.7-6.3,25.6-20.2C119.5,65,100.3,30.1,91.2,29.2z"/>
</g>
<g>
	<path class="st2" d="M85.8,81.8c-0.1-0.5-0.2-0.8-0.4-1.4c-1-3.5-2.4-7.2-3.9-10.9c-0.8-1.8-1.7-3.6-2.5-5.4
		c-0.9-1.8-1.8-3.4-2.9-5.1c-2.3-3.5-5.2-5.9-7.8-7.4c-2.6-1.6-5-2.5-6.6-3.1C60,48,59,47.8,59,47.8s0.7,0.7,2.1,1.8
		c1.3,1.1,3.1,2.7,5.1,4.8c1.9,2,3.9,4.5,5.3,7.4c0.7,1.5,1.4,3.3,2.2,4.9c0.7,1.7,1.5,3.5,2.2,5.2c1.5,3.5,3.1,7.1,4.5,10.4
		c0.1,0.2,0.3,0.8,0.5,1.1l0.3,0.9c0.2,0.7,0.4,1.5,0.5,2.2c0.2,1.5,0.3,3,0.3,4.4c0,5.6-0.9,9.6-0.9,9.6s2.8-3.1,4.3-9.1
		c0.4-1.5,0.7-3.2,0.8-5c0-0.9,0-1.9,0-2.9C86,83,85.9,82.4,85.8,81.8z"/>
</g>
<g>
	<path class="st2" d="M87,83.1c-0.7-1-1.1-2.2-1.7-3.9c-1.1-3.2-2.5-6.5-3.9-9.8c-1.5-3.3-3-6.5-4.6-9.5c-0.7-1.5-1.4-2.6-1.9-3.9
		c-0.4-1.3-0.7-2.5-0.9-3.7c-0.2-2.4,0.1-4.6,0.5-6.1c0.4-1.5,0.7-2.4,0.7-2.4s-0.7,0.6-1.8,1.9c-1,1.3-2.4,3.4-2.9,6.4
		c-0.3,1.5-0.3,3.2-0.1,4.9c0.2,1.7,0.8,3.6,1.4,5.2c1.1,3.2,2.5,6.5,3.9,9.8c1.5,3.3,3,6.5,4.6,9.5c0.7,1.4,1.7,3.2,3,4.5
		c1.3,1.3,2.7,2.2,4,2.9c2.7,1.4,5.1,1.8,6.8,1.8c1.7,0,2.6-0.2,2.6-0.2s-3.7-1.1-7.3-4.5C88.6,85.1,87.7,84.1,87,83.1z"/>
</g>
</svg>
