<?xml version="1.0" encoding="utf-8"?>
<!-- Generator: Adobe Illustrator 23.0.3, SVG Export Plug-In . SVG Version: 6.00 Build 0)  -->
<svg version="1.1" id="Layer_1" xmlns="http://www.w3.org/2000/svg" xmlns:xlink="http://www.w3.org/1999/xlink" x="0px" y="0px"
	 viewBox="0 0 144 144" style="enable-background:new 0 0 144 144;" xml:space="preserve">
<style type="text/css">
	.st0{enable-background:new    ;}
	.st1{fill:#CE97F0;}
	.st2{fill:#3A5A85;}
</style>
<g class="st0">
	<path class="st1" d="M98.1,7.2C83.5,3.7,66.7,16.4,52,21.2C37.3,26.1,12.5,33.7,9.1,49.8C4.7,70.9,22.7,83.2,27.7,94.3
		c5,11,2.9,33.4,21.1,39.9c17.9,6.3,35.4-5.7,48.2-11.8c12.8-6.1,36.3-13.2,39.9-30.3c3.7-17.2-10.4-31.2-15.9-42.9
		C115.5,37.5,112.7,10.6,98.1,7.2z"/>
</g>
<g>
	<path class="st2" d="M70.8,72.3c-4-8.5-7-17.5-9.1-24.4c-1.1-3.5-2-6.4-2.6-8.4c-0.7-2-1.1-3.2-1.1-3.2s-0.5,4.9,0.2,12.3
		c0.3,3.7,1,8,2.2,12.5c0.6,2.2,1.2,4.6,2.1,6.9c0.8,2.3,1.8,4.6,2.8,6.9c1.1,2.2,2.2,4.5,3.4,6.6c1.1,2.2,2.6,4.1,3.8,6.1
		c2.7,3.8,5.4,7.2,7.9,9.9c5,5.4,8.9,8.5,8.9,8.5s-2.4-4.4-6.1-10.6C79.6,89.1,74.7,80.9,70.8,72.3z"/>
</g>
<g>
	<path class="st2" d="M90.9,57.2c-3.4,0.4-7.2,1.2-11.3,2.4c-4.1,1.2-8.3,2.8-12.4,4.7c-4,2-8,4.2-11.5,6.6c-3.5,2.4-6.5,5-8.9,7.4
		c-2.4,2.4-4.2,4.6-5.3,6.2c-1.1,1.6-1.7,2.6-1.7,2.6s0.9-0.6,2.6-1.7c1.6-1.1,3.9-2.6,6.6-4.3c5.5-3.5,13-7.6,20.8-11.3
		c7.8-3.7,15.7-6.9,21.9-9.2c6.2-2.3,10.4-3.8,10.4-3.8S97.6,56.2,90.9,57.2z"/>
</g>
</svg>
