<?xml version="1.0" encoding="utf-8"?>
<!-- Generator: Adobe Illustrator 23.0.3, SVG Export Plug-In . SVG Version: 6.00 Build 0)  -->
<svg version="1.1" id="Layer_1" xmlns="http://www.w3.org/2000/svg" xmlns:xlink="http://www.w3.org/1999/xlink" x="0px" y="0px"
	 viewBox="0 0 144 144" style="enable-background:new 0 0 144 144;" xml:space="preserve">
<style type="text/css">
	.st0{enable-background:new    ;}
	.st1{fill:#CE97F0;}
	.st2{fill:#3A5A85;}
</style>
<g class="st0">
	<path class="st1" d="M103.5,13.6C77.6-0.1,19.1,23.8,13.1,38.9c-7.7,19.4,3.7,32.3,8.4,46.2c4.7,13.9,0.6,37.5,18.6,46
		c27.6,12.9,85.7-11.2,93.1-30.6c6.4-16.6-4.2-32-8.2-44C121.1,44.7,125.1,25,103.5,13.6z"/>
</g>
<g>
	<path class="st2" d="M75.7,93c-1.9-6.5-3.7-15.2-5.2-24.1c-0.8-4.4-1.4-8.9-2-13.1c-0.6-4.2-1.1-8.2-1.6-11.6
		c-1-6.9-1.7-11.4-1.7-11.4s-1.3,4.5-1.8,11.5c-0.6,7-0.4,16.3,1.1,25.6c0.8,4.6,1.8,9.2,3.2,13.4c1.3,4.2,3,8,4.7,11.1
		c1.7,3.1,3.4,5.5,4.8,7.1c1.4,1.6,2.2,2.4,2.2,2.4s-0.4-1.1-1.1-3C77.5,98.9,76.6,96.2,75.7,93z"/>
</g>
<g>
	<path class="st2" d="M95.5,60.9c-3.6-0.2-7.7,0-12.2,0.4c-4.4,0.5-9.1,1.4-13.7,2.5c-9.2,2.3-18,6-24.1,9.7
		c-3.1,1.8-5.5,3.6-7.1,4.9c-1.5,1.4-2.3,2.3-2.3,2.3s1.1-0.5,3-1.2c1.9-0.7,4.6-1.7,7.9-2.8c6.6-2.1,15.3-4.7,24.2-6.9
		c8.8-2.3,17.7-4.2,24.5-5.4c3.4-0.6,6.3-1,8.3-1.2c2-0.2,3.2-0.4,3.2-0.4s-1.1-0.3-3.2-0.8C102,61.5,99.1,61,95.5,60.9z"/>
</g>
</svg>
