<?xml version="1.0" encoding="utf-8"?>
<!-- Generator: Adobe Illustrator 23.0.3, SVG Export Plug-In . SVG Version: 6.00 Build 0)  -->
<svg version="1.1" id="Layer_1" xmlns="http://www.w3.org/2000/svg" xmlns:xlink="http://www.w3.org/1999/xlink" x="0px" y="0px"
	 viewBox="0 0 144 144" style="enable-background:new 0 0 144 144;" xml:space="preserve">
<style type="text/css">
	.st0{enable-background:new    ;}
	.st1{fill:#CE97F0;}
	.st2{fill:#3A5A85;}
</style>
<g class="st0">
	<path class="st1" d="M110.9,23.4C98,13.1,84.8,22.1,70.8,22.5c-14,0.4-35.6-6.5-45.1,9.4c-11.2,18.9,1,32.9,1.2,44.5
		c0.2,11.6-9.1,31.6,4.1,42.7c13.2,11.1,30.6,3.8,42.6,2.8c12-0.9,34,3.3,44.7-11.8c10.6-15.1,2-29.1-0.4-41.8
		C115.6,55.6,123.7,33.7,110.9,23.4z"/>
</g>
<g>
	<path class="st2" d="M75.9,96.5c-0.5-3.4-1-7.3-1.4-11.5c-0.4-4.2-0.8-8.7-1-13.2c-0.5-9-0.8-18.1-1.1-25
		C72.2,39.8,72,35.2,72,35.2s-1.9,4.4-3.1,11.3c-1.3,6.9-2,16.2-1.5,25.6c0.3,4.7,0.8,9.3,1.7,13.7c0.9,4.3,2,8.3,3.3,11.6
		c1.2,3.3,2.6,6,3.7,7.7c1.1,1.8,1.8,2.7,1.8,2.7s-0.2-1.1-0.6-3.2C76.9,102.7,76.4,99.8,75.9,96.5z"/>
</g>
<g>
	<path class="st2" d="M95.9,69.2c-1.1,0.3-2.4,0.6-3.8,0.9c-5.5,1.2-12.9,2.2-20.4,2.9c-7.5,0.7-15.1,1.4-20.8,2
		c-5.7,0.6-9.6,1.2-9.6,1.2s3.7,1.4,9.5,2.3c2.9,0.5,6.3,0.8,10,1c3.7,0.2,7.6,0,11.5-0.3c3.9-0.5,7.8-1,11.4-2.1
		c3.6-0.9,6.9-2.2,9.5-3.6c1.4-0.6,2.5-1.4,3.5-2.1c1-0.6,1.9-1.3,2.5-1.9c1.3-1.1,2-1.8,2-1.8s-0.9,0.3-2.6,0.8
		C98,68.7,97,69,95.9,69.2z"/>
</g>
</svg>
